<svg width="32" height="32" viewBox="0 0 32 32" fill="none" xmlns="http://www.w3.org/2000/svg">
  <rect width="32" height="32" fill="black"/>
  <path d="M10.4757 8L16 16L10 10.4764L4 16L9.52427 8L4 0L10 5.52364L16 0L10.4757 8Z" fill="#FFC92B"/>
  <path d="M15.3333 8C15.3333 11.6754 18.3245 14.6667 22 14.6667C25.6755 14.6667 28.6667 11.6761 28.6667 8C28.6667 4.32308 25.6763 1.33333 22 1.33333C18.3237 1.33333 15.3333 4.32385 15.3333 8ZM25.9828 8C25.9828 10.1956 24.1966 11.9833 22 11.9833C19.8035 11.9833 18.0173 10.1963 18.0173 8C18.0173 5.80295 19.8042 4.01663 22 4.01663C24.1958 4.01663 25.9828 5.80295 25.9828 8Z" fill="#FFC92B"/>
</svg>
